<svg
   version="1.1"
   id="svg1"
   xml:space="preserve"
   width="48.530754"
   height="40.91468"
   xmlns:inkscape="http://www.inkscape.org/namespaces/inkscape"
   xmlns:sodipodi="http://sodipodi.sourceforge.net/DTD/sodipodi-0.dtd"
   xmlns="http://www.w3.org/2000/svg"
   xmlns:svg="http://www.w3.org/2000/svg"><defs
     id="defs1" /><sodipodi:namedview
     id="namedview1"
     pagecolor="#505050"
     bordercolor="#eeeeee"
     borderopacity="1"
     inkscape:showpageshadow="0"
     inkscape:pageopacity="0"
     inkscape:pagecheckerboard="0"
     inkscape:deskcolor="#d1d1d1" /><inkscape:clipboard
     style="font-variation-settings:normal;opacity:1;vector-effect:none;fill:#ffffff;fill-opacity:1;stroke-width:0.99999699;stroke-linecap:butt;stroke-linejoin:miter;stroke-miterlimit:4;stroke-dasharray:none;stroke-dashoffset:0;stroke-opacity:1;-inkscape-stroke:none;stop-color:#000000;stop-opacity:1"
     min="424.51118,431.75093"
     max="473.04193,472.66561"
     geom-min="424.51118,431.75093"
     geom-max="473.04193,472.66561" /><g
     id="g1"
     transform="translate(-3.6552008,127.75856)"><path
       d="M 5.2199339,-95.655763 H 50.619264 l 0.0021,-4.843357 H 5.2204231 Z m 13.0566561,8.811884 c -1.029802,0 -1.029802,-1.564896 0,-1.564896 h 3.059726 l 2.244364,-5.681983 H 4.4387089 c -0.4331636,0 -0.7835081,-0.35035 -0.7835081,-0.783508 v -32.100784 c 0,-0.43317 0.35035,-0.78351 0.7835081,-0.78351 H 51.402446 c 0.433163,0 0.783508,0.35035 0.783508,0.78351 v 32.100784 c 0,0.433163 -0.35035,0.783508 -0.783508,0.783508 H 32.260475 l 2.244364,5.681983 h 3.059726 c 1.029801,0 1.029801,1.564896 0,1.564896 z m 4.741436,-1.564896 h 9.805538 l -2.244365,-5.681983 H 25.26239 Z m 27.603249,-13.657305 v -24.12546 H 5.2203144 v 24.12546 z"
       fill-rule="evenodd"
       id="path1-6"
       style="fill:#ffffff;fill-opacity:1;stroke-width:0.999997" /></g></svg>
