<svg
   version="1.1"
   id="svg1"
   xml:space="preserve"
   width="19.91589"
   height="19.838083"
   xmlns:inkscape="http://www.inkscape.org/namespaces/inkscape"
   xmlns:sodipodi="http://sodipodi.sourceforge.net/DTD/sodipodi-0.dtd"
   xmlns="http://www.w3.org/2000/svg"
   xmlns:svg="http://www.w3.org/2000/svg"><defs
     id="defs1" /><sodipodi:namedview
     id="namedview1"
     pagecolor="#505050"
     bordercolor="#eeeeee"
     borderopacity="1"
     inkscape:showpageshadow="0"
     inkscape:pageopacity="0"
     inkscape:pagecheckerboard="0"
     inkscape:deskcolor="#d1d1d1" /><inkscape:clipboard
     style="font-variation-settings:normal;opacity:1;vector-effect:none;fill:#ffffff;fill-opacity:1;stroke-width:0.99999999;stroke-linecap:butt;stroke-linejoin:miter;stroke-miterlimit:4;stroke-dasharray:none;stroke-dashoffset:0;stroke-opacity:1;-inkscape-stroke:none;stop-color:#000000;stop-opacity:1"
     min="288.34348,110.83235"
     max="308.25937,130.67043"
     geom-min="288.34348,110.83235"
     geom-max="308.25937,130.67043" /><g
     id="g1"
     transform="translate(180.2009,222.22805)"><g
       id="SVGRepo_iconCarrier-6"
       transform="translate(-182.28501,-224.22805)"
       style="fill:#ffffff;fill-opacity:1"><path
         d="m 8.88595,7.16985 c 0.18296,0.0049 0.3858,0.0148 0.57879,0.44318 0.12797,0.28518 0.34355,0.81018 0.51916,1.23784 0.1367,0.33279 0.2491,0.60664 0.2772,0.66269 0.0643,0.128 0.1039,0.2757 0.0198,0.448 -0.0099,0.02032 -0.0192,0.03974 -0.0283,0.05844 -0.0674,0.14 -0.1154,0.2397 -0.2289,0.3699 -0.04661,0.0536 -0.0952,0.1123 -0.14362,0.1708 -0.08514,0.1029 -0.16973,0.2051 -0.24223,0.2773 -0.12861,0.1279 -0.26222,0.2659 -0.11383,0.5219 0.14848,0.256 0.66788,1.098 1.43468,1.7774 0.8243,0.7339 1.5411,1.0432 1.9035,1.1995 0.0703,0.0304 0.1273,0.055 0.1691,0.0758 0.2573,0.128 0.4106,0.1083 0.559,-0.064 0.1485,-0.1724 0.6431,-0.7485 0.8163,-1.0045 0.1682,-0.256 0.3413,-0.2166 0.5788,-0.128 0.2374,0.0886 1.5038,0.709 1.761,0.837 0.0508,0.0253 0.0984,0.0481 0.1425,0.0693 0.1789,0.0858 0.3006,0.1441 0.3522,0.2311 0.0643,0.1083 0.0643,0.6204 -0.1484,1.2211 -0.2176,0.6006 -1.2664,1.1767 -1.7413,1.221 -0.045,0.0043 -0.0897,0.0097 -0.1358,0.0152 -0.4352,0.0527 -0.9876,0.1195 -2.956,-0.6553 C 9.83424,15.2018 8.23322,12.8354 7.90953,12.357 7.88398,12.3192 7.86638,12.2932 7.85698,12.2806 L 7.8515,12.2733 C 7.70423,12.0762 6.80328,10.8707 6.80328,9.62685 6.80328,8.43682 7.38951,7.81726 7.65689,7.53467 7.67384,7.51676 7.6895,7.50021 7.70366,7.48494 7.94107,7.22895 8.21814,7.16495 8.39125,7.16495 c 0.1732,0 0.34631,0 0.4947,0.0049 z"
         fill="#000000"
         id="path1-2"
         style="fill:#ffffff;fill-opacity:1" /><path
         fill-rule="evenodd"
         clip-rule="evenodd"
         d="m 2.18418,21.3314 c -0.08182,0.297 0.18867,0.5711 0.48672,0.4933 L 7.27824,20.6213 C 8.7326,21.409 10.37,21.8275 12.0371,21.8275 h 0.005 C 17.5281,21.8275 22,17.3815 22,11.9163 22,9.26735 20.966,6.77594 19.0863,4.90491 17.2065,3.03397 14.7084,2 12.042,2 6.55607,2 2.08411,6.44605 2.08411,11.9114 2.08348,13.65 2.5424,15.3582 3.41479,16.8645 Z M 4.86092,17.2629 C 4.96774,16.8752 4.91437,16.4608 4.71281,16.1127 3.97266,14.8348 3.58358,13.3855 3.58411,11.9114 3.58411,7.28158 7.37738,3.5 12.042,3.5 c 2.2699,0 4.3876,0.87698 5.9861,2.46805 1.5967,1.58932 2.4719,3.69806 2.4719,5.94825 0,4.6296 -3.7932,8.4112 -8.4579,8.4112 h -0.005 c -1.4165,0 -2.80847,-0.3557 -4.04444,-1.0252 C 7.65814,19.1211 7.26726,19.0738 6.89916,19.17 l -2.7624,0.7215 z"
         fill="#000000"
         id="path2-6"
         style="fill:#ffffff;fill-opacity:1" /></g></g></svg>
