<?xml version="1.0" encoding="UTF-8" standalone="no"?>
<!-- Created with Inkscape (http://www.inkscape.org/) -->

<svg
   version="1.1"
   id="svg1"
   xml:space="preserve"
   width="32.232891"
   height="47.203545"
   xmlns:inkscape="http://www.inkscape.org/namespaces/inkscape"
   xmlns:sodipodi="http://sodipodi.sourceforge.net/DTD/sodipodi-0.dtd"
   xmlns="http://www.w3.org/2000/svg"
   xmlns:svg="http://www.w3.org/2000/svg"><defs
     id="defs1" /><sodipodi:namedview
     id="namedview1"
     pagecolor="#505050"
     bordercolor="#eeeeee"
     borderopacity="1"
     inkscape:showpageshadow="0"
     inkscape:pageopacity="0"
     inkscape:pagecheckerboard="0"
     inkscape:deskcolor="#d1d1d1" /><inkscape:clipboard
     style="font-variation-settings:normal;opacity:1;vector-effect:none;fill:#ffffff;fill-opacity:1;stroke-width:0.99999999;stroke-linecap:butt;stroke-linejoin:miter;stroke-miterlimit:4;stroke-dasharray:none;stroke-dashoffset:0;stroke-opacity:1;-inkscape-stroke:none;stop-color:#000000;stop-opacity:1"
     min="369.42703,533.60471"
     max="401.65992,580.80825"
     geom-min="369.42703,533.60471"
     geom-max="401.65992,580.80825" /><g
     id="g1"
     transform="translate(-96.846691,-21.949653)"><path
       d="m 128.97633,41.441199 c -0.226,-0.575 -0.78,-0.954 -1.397,-0.954 h -9.776 l 7.573,-16.409 c 0.305,-0.66 0.092,-1.443 -0.504,-1.859 -0.596,-0.415 -1.405,-0.345 -1.919,0.17 l -25.667005,25.666 c -0.429,0.429 -0.558,1.074 -0.325,1.635 0.233,0.561 0.779,0.926 1.386,0.926 h 8.896005 l -8.791005,16.327 c -0.348,0.646 -0.178,1.447 0.401,1.896 0.271,0.21 0.596,0.314 0.919,0.314 0.366005,0 0.731005,-0.134 1.018005,-0.397 l 27.807,-25.667 c 0.454,-0.419 0.604,-1.073 0.379,-1.648 z"
       id="path1-3"
       style="fill:#ffffff;fill-opacity:1" /></g></svg>
