<svg
   version="1.1"
   id="svg1"
   xml:space="preserve"
   width="56.595146"
   height="58.353893"
   xmlns:inkscape="http://www.inkscape.org/namespaces/inkscape"
   xmlns:sodipodi="http://sodipodi.sourceforge.net/DTD/sodipodi-0.dtd"
   xmlns="http://www.w3.org/2000/svg"
   xmlns:svg="http://www.w3.org/2000/svg"><defs
     id="defs1"><clipPath
       clipPathUnits="userSpaceOnUse"
       id="clipPath4"><rect
         style="fill:#6d7793;fill-opacity:0.917647;stroke:#4a4a4a;stroke-width:0.2;stroke-linejoin:round;stroke-miterlimit:4.5;paint-order:markers fill stroke"
         id="rect5"
         width="56.595146"
         height="63.314064"
         x="112.24344"
         y="62.999554"
         ry="0.53169578" /></clipPath><clipPath
       clipPathUnits="userSpaceOnUse"
       id="clipPath2"><rect
         style="fill:#6d7793;fill-opacity:0.917647;stroke:#4a4a4a;stroke-width:0.755906;stroke-linejoin:round;stroke-miterlimit:4.5;paint-order:markers fill stroke"
         id="rect3"
         width="93.162605"
         height="67.039864"
         x="51.241543"
         y="40.814312"
         ry="0.53169578" /></clipPath></defs><sodipodi:namedview
     id="namedview1"
     pagecolor="#505050"
     bordercolor="#eeeeee"
     borderopacity="1"
     inkscape:showpageshadow="0"
     inkscape:pageopacity="0"
     inkscape:pagecheckerboard="0"
     inkscape:deskcolor="#d1d1d1" /><inkscape:clipboard
     style="font-variation-settings:normal;opacity:1;vector-effect:none;fill:#fdffff;fill-opacity:1;stroke-width:0.99999999;stroke-linecap:butt;stroke-linejoin:miter;stroke-miterlimit:4;stroke-dasharray:none;stroke-dashoffset:0;stroke-opacity:1;-inkscape-stroke:none;stop-color:#000000;stop-opacity:1"
     min="332.82306,588.37697"
     max="389.41821,646.73087"
     geom-min="315.86253,588.37697"
     geom-max="397.21871,683.14568" /><g
     id="g1"
     transform="matrix(3.7795276,0,0,3.7795276,-332.82306,-588.37698)"><g
       id="g2"
       transform="matrix(0.26458333,0,0,0.26458333,58.361692,138.35595)"
       clip-path="url(#clipPath4)"
       style="fill:#fdffff;fill-opacity:1"><path
         d="m 141.59399,111.42138 c -1.0898,-1.7695 -3.8086,-3.1406 -7.8828,-1.1836 l -0.0703,0.0352 v 0.004 c -5.332,2.9648 -10.445,6.3008 -15.309,9.9844 -3.1562,2.3438 -5.2383,3.88671 -8.1836,4.87891 v -0.004 c -1.1875,0.10156 -2.3789,0.0703 -3.5586,-0.0977 -0.78125,-0.0703 -1.6055,-0.14062 -2.4375,-0.18359 l 11.262,-3.70701 c 4.0781,-1.3438 5.3438,-4.4375 4.7891,-6.9062 -0.54688,-2.4336 -3.0742,-4.8125 -7.3398,-4.2812 -2.2109,0.25391 -4.3984,0.67969 -6.5391,1.2773 -2.3477,0.64062 -3.2266,0.87891 -10.777,-0.26562 -7.3086,-1.1055 -13.14801,0.23828 -18.84401,4.3555 v 0.004 c -0.25391,-0.32812 -0.57031,-0.60156 -0.93359,-0.80469 -0.69922,-0.39062 -1.5273,-0.48438 -2.3008,-0.26172 l -0.92969,0.26953 v 0.004 c -0.83984,-0.70312 -1.9766,-0.94141 -3.0312,-0.63281 l -6.2109,1.7539 h 0.004 c -1.7383,0.49219 -2.7461,2.293 -2.2578,4.0312 l 6.2617,22.19501 c 0.23047,0.83594 0.78906,1.5469 1.5469,1.9688 0.76172,0.42578 1.6602,0.52734 2.4922,0.28516 l 3.9297,-1.1406 c 1.1602,-0.34375 2.0352,-1.3047 2.2578,-2.4922 l 3.1094,-0.875 v -0.004 c 1.4062,-0.40234 2.3242,-1.75 2.1836,-3.2031 0.14844,0.0195 0.30078,0.043 0.44531,0.0625 h 0.0352 c 1.168,0.36719 2.2383,0.99219 3.1328,1.8281 2.65231,2.2266 5.80861,3.7773 9.19141,4.5117 1.5117,0.29687 3.0508,0.44531 4.5898,0.4375 4.8438,-0.14453 9.6328,-1.0938 14.168,-2.8086 0.0742,-0.0234 0.14453,-0.0547 0.21094,-0.0937 2.7656,-1.5586 9.1953,-7.418 15.418,-13.082 3.9766,-3.625 7.7344,-7.04301 9.7227,-8.57811 2.4531,-1.8867 3.2461,-5.0156 1.8555,-7.2812 z m -67.04701,29.09801 -3.9297,1.1406 c -0.16797,0.0508 -0.34766,0.0273 -0.50391,-0.0547 -0.16016,-0.0898 -0.28125,-0.23828 -0.32812,-0.41797 l -6.2656,-22.19501 c -0.0937,-0.36328 0.11328,-0.73828 0.47266,-0.84375 l 6.2109,-1.7539 c 0.21094,-0.0547 0.4375,-0.0234 0.62109,0.0898 0.10156,0.0508 0.17188,0.14453 0.19531,0.25391 l 3.9766,22.80501 v 0.004 c 0.11719,0.39062 -0.0742,0.80859 -0.44922,0.97266 z m 5.6523,-3.5898 c -0.0547,0.10547 -0.15234,0.17969 -0.26562,0.21094 l -2.6016,0.73828 -3.6602,-20.98001 0.51562,-0.14844 v -0.004 c 0.10938,-0.0312 0.22656,-0.0156 0.32812,0.043 0.10547,0.0547 0.18359,0.15234 0.21484,0.26953 l 5.5117,19.53501 c 0.0312,0.11328 0.0156,0.23438 -0.043,0.33594 z m 57.96901,-20.27301 c -2.0703,1.5977 -5.8672,5.0508 -9.8828,8.71091 -5.7578,5.2422 -12.273,11.18 -14.852,12.688 -15.82,5.4727 -21.602,1.0977 -25.43,-1.8008 h -0.004 c -1.22271,-1.1328 -2.71881,-1.9297 -4.33981,-2.3203 -0.50391,-0.0781 -1.0195,-0.14062 -1.5352,-0.18359 l -4.4883,-15.90601 c 0.0469,-0.0352 0.0937,-0.0664 0.14062,-0.10547 5.3203,-3.9922 10.51601,-5.2539 17.37901,-4.2109 7.6992,1.1641 9.0508,0.96094 11.844,0.20312 2.0234,-0.57031 4.0938,-0.97266 6.1836,-1.207 2.6758,-0.33594 4.1914,0.90625 4.5,2.2812 0.27734,1.2344 -0.35938,2.9922 -3.0781,3.8867 l -15.75,5.19141 c -0.42188,0.13672 -0.9375,0.45703 -1.8594,1.8398 -0.95703,1.4375 -0.95703,1.7461 -0.96094,1.9922 v -0.004 c 0,0.55859 0.35547,1.0547 0.88672,1.2344 0.5625,0.1875 1.1836,-0.0273 1.5117,-0.52734 1.0469,-1.4023 5.1953,-1.043 7.9414,-0.80469 h -0.004 c 1.5234,0.25391 3.082,0.24609 4.6055,-0.0273 3.332,-1.1172 5.668,-2.8516 8.8984,-5.25001 v -0.004 c 4.7617,-3.6055 9.7695,-6.875 14.988,-9.7812 2.0898,-0.99609 3.8242,-0.91016 4.5273,0.22656 0.59766,0.96484 0.36719,2.6523 -1.2227,3.8789 z m -68.18401,15.87501 c -0.58594,0 -1.0977,-0.39453 -1.2461,-0.95703 l -0.082,-0.30859 v -0.004 c -0.16797,-0.67969 0.24219,-1.3711 0.91797,-1.5508 0.67969,-0.17969 1.3789,0.21094 1.5742,0.88281 l 0.082,0.31641 h 0.004 c 0.18359,0.69141 -0.22656,1.3945 -0.91406,1.582 -0.10937,0.0273 -0.22266,0.0391 -0.33594,0.0391 z m 3.0391,5.0625 c 0.18359,0.6875 -0.22656,1.3906 -0.91016,1.5781 -0.10938,0.0273 -0.22266,0.043 -0.33594,0.043 -0.58594,0 -1.0977,-0.39453 -1.2461,-0.95703 l -0.83203,-3.0938 c -0.17188,-0.68359 0.23828,-1.375 0.91797,-1.5586 0.67969,-0.18359 1.3828,0.21484 1.5781,0.89062 z m 32.34401,-82.586009 v -4.2539 c 0.0195,-0.69531 0.58984,-1.2539 1.2891,-1.2539 0.69926,0 1.2695,0.55859 1.293,1.2539 v 4.2539 c 0.008,0.34766 -0.125,0.6875 -0.36719,0.9375 -0.24219,0.25 -0.57812,0.39062 -0.92578,0.39062 -0.34766,0 -0.68359,-0.14062 -0.92578,-0.39062 -0.24219,-0.25 -0.375,-0.58984 -0.36328,-0.9375 z m 14.738,6.8594 -0.004,0.0039 c -0.50391,-0.50781 -0.50391,-1.3242 0,-1.8281 l 3.0078,-3.0078 c 0.50391,-0.50391 1.3242,-0.5 1.8281,0.0039 0.5039,0.503906 0.50391,1.3242 -0.004,1.8281 l -3.0078,3.0078 h 0.004 c -0.50391,0.50391 -1.3242,0.50391 -1.8281,0 z m 5.5703,13.445 -0.004,0.0039 c 0,-0.71484 0.57812,-1.2891 1.2891,-1.293 h 4.2539 c 0.34766,-0.0078 0.6875,0.125 0.9375,0.36719 0.25,0.24219 0.39062,0.57812 0.39062,0.92578 0,0.34766 -0.14062,0.68359 -0.39062,0.92578 -0.25,0.24219 -0.58984,0.375 -0.9375,0.36328 h -4.2539 c -0.33984,0 -0.66797,-0.13281 -0.91016,-0.375 -0.24219,-0.24219 -0.37891,-0.57422 -0.37891,-0.91406 z m -37.234,-16.516 c -0.50391,-0.50391 -0.50391,-1.3203 0,-1.8242 0.50391,-0.50391 1.3203,-0.50391 1.8242,0 l 3.0117,3.0078 c 0.50391,0.50391 0.50391,1.3203 0,1.8281 -0.50391,0.50391 -1.3203,0.5 -1.8242,-0.0039 z m -7.63671,16.52 c 0,-0.34375 0.13672,-0.67188 0.37891,-0.91406 0.24219,-0.24219 0.57031,-0.37891 0.91406,-0.37891 h 4.2539 -0.004 c 0.35156,-0.0078 0.68751,0.125 0.93751,0.36719 0.25,0.24219 0.39453,0.57812 0.39453,0.92578 0,0.34766 -0.14453,0.68359 -0.39453,0.92578 -0.25,0.24219 -0.58595,0.375 -0.93751,0.36328 h -4.2539 0.004 c -0.34375,0 -0.67188,-0.13281 -0.91406,-0.375 -0.24219,-0.24219 -0.37891,-0.57422 -0.37891,-0.91406 z m 7.63671,18.340001 c -0.24219,-0.24219 -0.37891,-0.57031 -0.37891,-0.91406 0,-0.339845 0.13672,-0.667975 0.37891,-0.910165 l 3.0078,-3.0078 c 0.50391,-0.50391 1.3203,-0.50781 1.8281,-0.004 0.50391,0.50391 0.50391,1.3242 0,1.8281 l -3.0117,3.007805 c -0.50391,0.50391 -1.3203,0.50391 -1.8242,0 z m 8.1914,-3.761705 -0.004,0.004 c 1.3828,0.94141 2.1953,2.5195 2.1641,4.191405 v 2.871096 c 0,1.7305 1.0469,3.289102 2.6484,3.945302 v 1.5977 -0.004 c -0.0195,1.3984 0.51953,2.7422 1.5,3.7383 0.98047,0.99219 2.3203,1.5547 3.7148,1.5547 1.3945,0 2.7344,-0.5625 3.7148,-1.5547 0.98047,-0.99609 1.5195,-2.3398 1.5,-3.7383 v -1.5938 c 1.6016,-0.65625 2.6484,-2.214802 2.6484,-3.945302 v -0.95312 c 2.5664,1.4922 5.6367,1.8516 8.4766,0.98828 2.8398,-0.85938 5.1953,-2.859396 6.5,-5.519501 1.3086,-2.6641 1.4531,-5.753896 0.39844,-8.523396 -1.0586,-2.7734 -3.2188,-4.9844 -5.9648,-6.1016 0.0195,-0.35156 0.0312,-0.70312 0.0312,-1.0508 v -0.0039 c 0,-6.0352 -3.1484,-11.637 -8.3008,-14.777 -5.1562,-3.1406 -11.578,-3.3672 -16.941,-0.59766 -5.3633,2.7695 -8.8984,8.1328 -9.3242,14.152 -0.42578,6.0234 2.3164,11.831996 7.2344,15.327996 z m 10.023,15.238003 v 0.004 c -1.4531,0 -2.6328,-1.1797 -2.6328,-2.6328 v -1.2812 h 5.2617 v 1.2773 h 0.004 c 0,0.69922 -0.27734,1.3711 -0.77344,1.8633 -0.49219,0.49609 -1.1602,0.77344 -1.8594,0.77344 z m 3.6016,-6.496102 -7.207,0.004 c -0.92188,-0.004 -1.6719,-0.75391 -1.6758,-1.6797 v -0.80469 h 10.562 v 0.80469 c -0.004,0.92578 -0.75391,1.6758 -1.6797,1.6797 z m 15.367,-6.144501 0.004,0.004 c -2.3203,2.324201 -5.8125,3.019501 -8.8477,1.761701 -3.0312,-1.253896 -5.0117,-4.214801 -5.0117,-7.496101 0,-3.285196 1.9805,-6.246096 5.0117,-7.499996 3.0352,-1.2578 6.5273,-0.5625 8.8477,1.7617 3.1602,3.168 3.1641,8.300796 0,11.472996 z m -18.969,-31.421996 c 3.9023,0.0039 7.6484,1.5547 10.41,4.3125 2.7578,2.7617 4.3125,6.5039 4.3164,10.41 0,0.125 0,0.25 -0.008,0.37109 -0.48828,-0.07031 -0.98438,-0.10547 -1.4766,-0.10547 -2.8398,-0.0078 -5.5664,1.1211 -7.5664,3.1367 -3.8945,3.9023 -4.1875,10.124996 -0.67969,14.379001 h -10.293 c -0.125,-2.324205 -1.3203,-4.457005 -3.2305,-5.781205 -3.418,-2.425796 -5.6367,-6.195296 -6.1016,-10.358996 -0.46875,-4.1641 0.85938,-8.3281 3.6523,-11.453 2.793,-3.1211 6.7852,-4.9102 10.973,-4.9102 z m 11.887,26.976996 4.4766,-4.476596 c 0.50391,-0.50391 1.3203,-0.50781 1.8242,-0.0039 0.50781,0.50391 0.50781,1.3203 0.004,1.8281 l -5.3906,5.390596 c -0.24219,0.24219 -0.57031,0.37891 -0.91406,0.37891 -0.34375,0 -0.67188,-0.13672 -0.91406,-0.37891 l -3.5352,-3.5312 h 0.004 c -0.49219,-0.50781 -0.48438,-1.3125 0.0156,-1.812496 0.49609,-0.49609 1.3047,-0.50391 1.8086,-0.01563 z"
         id="path1"
         inkscape:transform-center-x="8.7411099"
         inkscape:transform-center-y="5.2927667"
         clip-path="url(#clipPath2)"
         transform="translate(34.362588,15.956568)"
         style="fill:#fdffff;fill-opacity:1" /></g></g></svg>
