<svg
   version="1.1"
   id="svg1"
   xml:space="preserve"
   width="56.629082"
   height="69.553406"
   xmlns:inkscape="http://www.inkscape.org/namespaces/inkscape"
   xmlns:sodipodi="http://sodipodi.sourceforge.net/DTD/sodipodi-0.dtd"
   xmlns="http://www.w3.org/2000/svg"
   xmlns:svg="http://www.w3.org/2000/svg"><defs
     id="defs1" /><sodipodi:namedview
     id="namedview1"
     pagecolor="#505050"
     bordercolor="#eeeeee"
     borderopacity="1"
     inkscape:showpageshadow="0"
     inkscape:pageopacity="0"
     inkscape:pagecheckerboard="0"
     inkscape:deskcolor="#d1d1d1" /><inkscape:clipboard
     style="font-variation-settings:normal;opacity:1;vector-effect:none;fill:#6d7793;fill-opacity:1;stroke-width:2.88209122;stroke-linecap:butt;stroke-linejoin:miter;stroke-miterlimit:4;stroke-dasharray:none;stroke-dashoffset:0;stroke-opacity:1;-inkscape-stroke:none;stop-color:#000000;stop-opacity:1"
     min="411.09647,316.38223"
     max="467.72556,385.93564"
     geom-min="411.09647,316.38223"
     geom-max="467.72556,385.93564" /><g
     id="g1"
     transform="matrix(2.4642736,0,0,2.4642736,-492.55166,-747.68543)"><path
       d="m 222.12313,313.03284 c -0.16372,0.12702 -3.05421,1.75575 -3.05421,5.37734 0,4.18897 3.67804,5.67091 3.78813,5.70761 -0.0169,0.0903 -0.58431,2.02956 -1.93923,4.00549 -1.20814,1.73881 -2.46991,3.4748 -4.38938,3.4748 -1.91948,0 -2.41345,-1.11498 -4.62931,-1.11498 -2.15941,0 -2.9272,1.15168 -4.68295,1.15168 -1.75576,0 -2.98083,-1.60897 -4.38939,-3.58489 -1.63155,-2.32031 -2.94977,-5.92497 -2.94977,-9.34614 0,-5.48743 3.56796,-8.39769 7.07946,-8.39769 1.86584,0 3.42118,1.22507 4.59262,1.22507 1.11499,0 2.85381,-1.29846 4.97652,-1.29846 0.80448,0 3.69498,0.0734 5.59751,2.80017 z m -6.60524,-5.1233 c 0.87788,-1.04159 1.49888,-2.48684 1.49888,-3.93209 0,-0.20042 -0.0169,-0.40366 -0.0536,-0.56738 -1.42831,0.0536 -3.12761,0.95127 -4.15227,2.13965 -0.80448,0.91457 -1.55533,2.35982 -1.55533,3.82483 0,0.22018 0.0367,0.44035 0.0536,0.51092 0.0903,0.0169 0.23711,0.0367 0.38389,0.0367 1.28153,0 2.89332,-0.85812 3.82483,-2.01262 z"
       id="path1-5"
       style="fill:#6d7793;fill-opacity:1;stroke-width:1.16955" /></g></svg>
