<svg
   version="1.1"
   id="svg1"
   xml:space="preserve"
   width="186.77715"
   height="74.710869"
   xmlns:inkscape="http://www.inkscape.org/namespaces/inkscape"
   xmlns:sodipodi="http://sodipodi.sourceforge.net/DTD/sodipodi-0.dtd"
   xmlns="http://www.w3.org/2000/svg"
   xmlns:svg="http://www.w3.org/2000/svg"><defs
     id="defs1" /><sodipodi:namedview
     id="namedview1"
     pagecolor="#505050"
     bordercolor="#eeeeee"
     borderopacity="1"
     inkscape:showpageshadow="0"
     inkscape:pageopacity="0"
     inkscape:pagecheckerboard="0"
     inkscape:deskcolor="#d1d1d1" /><inkscape:clipboard
     style="font-variation-settings:normal;opacity:1;vector-effect:none;fill:#6d7793;fill-opacity:1;stroke-width:0.80000126;stroke-linecap:butt;stroke-linejoin:miter;stroke-miterlimit:4;stroke-dasharray:none;stroke-dashoffset:0;stroke-opacity:1;-inkscape-stroke:none;stop-color:#000000;stop-opacity:1"
     min="180.14372,502.31951"
     max="366.92087,577.03037"
     geom-min="180.14372,502.31951"
     geom-max="366.92087,577.03037" /><g
     id="g1"
     transform="matrix(3.7795276,0,0,3.7795276,-180.14372,-502.31951)"><path
       d="m 47.663026,132.90537 v 1.35242 h 9.619138 v -1.35242 z m 10.981991,0 v 1.35242 h 13.707747 c 0,0 -1.400163,-1.35242 -3.254628,-1.35242 z m 16.396784,0 v 1.35242 h 8.292954 l -0.492204,-1.35242 z m 14.238596,0 -0.492253,1.35242 h 8.21769 v -1.35242 z m -41.617371,2.63013 v 1.35242 h 9.619138 v -1.35242 z m 10.981991,0.002 v 1.35055 h 15.298368 c 0,0 -0.178647,-1.0409 -0.490326,-1.35055 z m 16.396784,0 v 1.35055 h 9.202197 l -0.455585,-1.35055 z m 13.254089,0 -0.455587,1.35055 h 9.165531 v -1.35052 z m -37.868563,2.62823 v 1.35435 h 4.165799 v -1.35435 z m 10.982041,0 v 1.35435 h 4.165799 v -1.35435 z m 8.21769,0 v 1.35435 h 4.1658 c 0,0 0.264485,-0.71523 0.264485,-1.35435 z m 8.179093,0 v 1.35435 h 7.385687 l -0.492253,-1.35435 z m 9.582471,0 -0.494182,1.35435 h 7.422356 v -1.35435 z m -36.961295,2.63211 v 1.35242 h 4.165799 v -1.35242 z m 10.982041,0 v 1.35242 h 10.640315 c 0,0 0.890119,-0.69393 1.173679,-1.35242 z m 16.396783,0 v 1.35242 h 4.165801 v -0.75283 l 0.264486,0.75283 h 7.630848 l 0.283759,-0.75283 v 0.75283 h 4.1658 v -1.35242 h -7.820072 l -0.415014,1.14551 -0.416989,-1.14551 z m -27.378824,2.63013 v 1.35242 h 4.165799 v -1.35242 z m 10.982041,0 v 1.35242 h 11.813994 c -0.283609,-0.65632 -1.173679,-1.35242 -1.173679,-1.35242 z m 16.396783,0 v 1.35242 h 4.165801 v -1.35242 z m 4.922491,0 0.503818,1.35242 h 5.721679 l 0.478762,-1.35242 z m 7.422354,0 v 1.35242 h 4.1658 v -1.35242 z M 50.427327,146.058 v 1.35238 h 4.165799 V 146.058 Z m 10.982041,0 v 1.35238 h 4.165799 V 146.058 Z m 8.21769,0 v 1.35238 h 4.430235 c 0,-0.63824 -0.264484,-1.35238 -0.264484,-1.35238 z m 8.179093,0 v 1.35238 h 4.165801 V 146.058 Z m 5.868403,0 0.488399,1.35238 h 3.835686 l 0.492253,-1.35238 z m 6.476442,0 v 1.35238 h 4.1658 V 146.058 Z m -42.412706,2.63013 v 1.35435 h 9.619138 v -1.35435 z m 10.906727,0 v 1.35435 h 14.808042 c 0.311679,-0.31009 0.490326,-1.35435 0.490326,-1.35435 z m 16.472097,0 v 1.35435 h 6.854838 v -1.35435 z m 9.505229,0 0.501891,1.35435 h 1.951621 l 0.471003,-1.35435 z m 5.528653,0 v 1.35435 h 6.930151 v -1.35435 z m -42.412706,2.63206 v 1.35243 h 9.619138 v -1.35243 z m 10.906727,0 v 1.3505 h 10.453119 c 1.854465,0 3.254628,-1.3505 3.254628,-1.3505 z m 16.472097,0 v 1.35243 h 6.854838 v -1.35243 z m 10.456924,0 0.482618,1.34862 0.08302,0.002 0.490325,-1.3505 z m 4.576958,0 v 1.35243 h 6.930151 v -1.35243 z"
       fill="#1f70c1"
       id="path1"
       style="fill:#6d7793;fill-opacity:1;stroke-width:0.211667" /></g></svg>
