<svg
   version="1.1"
   id="svg1"
   xml:space="preserve"
   width="240.08284"
   height="38.023655"
   xmlns:inkscape="http://www.inkscape.org/namespaces/inkscape"
   xmlns:sodipodi="http://sodipodi.sourceforge.net/DTD/sodipodi-0.dtd"
   xmlns="http://www.w3.org/2000/svg"
   xmlns:svg="http://www.w3.org/2000/svg"><defs
     id="defs1" /><sodipodi:namedview
     id="namedview1"
     pagecolor="#505050"
     bordercolor="#eeeeee"
     borderopacity="1"
     inkscape:showpageshadow="0"
     inkscape:pageopacity="0"
     inkscape:pagecheckerboard="0"
     inkscape:deskcolor="#d1d1d1" /><inkscape:clipboard
     style="font-variation-settings:normal;opacity:1;vector-effect:none;fill:#6d7793;fill-opacity:0.917647;stroke-width:72.05254314;stroke-linecap:butt;stroke-linejoin:miter;stroke-miterlimit:4;stroke-dasharray:none;stroke-dashoffset:0;stroke-opacity:1;-inkscape-stroke:none;stop-color:#000000;stop-opacity:1"
     min="353.55882,650.25151"
     max="593.64166,688.27516"
     geom-min="353.55882,650.25151"
     geom-max="593.64166,688.27516" /><g
     id="g1"
     transform="translate(-43.186081,-526.20123)"><g
       style="fill:#6d7793;fill-opacity:0.917647;stroke-width:9.00286"
       id="g11"
       transform="matrix(8.0032949,0,0,8.0032949,35.14277,417.18035)"><path
         d="m 21.565,15.988 c 0.471,0 0.925,0.07 1.354,0.2 l -0.033,-0.009 v 0.434 c -0.068,0.69 -0.646,1.225 -1.348,1.225 -0.053,0 -0.106,-0.003 -0.158,-0.009 l 0.006,10e-4 c -0.606,0 -1.13,-0.326 -1.13,-0.891 0,-0.584 0.469,-0.95 1.308,-0.95 z m 7.354,-1.727 c 0.791,0.022 1.424,0.669 1.424,1.464 0,0.019 0,0.038 -0.001,0.056 v -0.003 h -2.847 c 0.003,-0.805 0.628,-1.463 1.419,-1.518 h 0.005 z m -7.147,-0.538 c -0.007,0 -0.016,0 -0.024,0 -0.061,0 -0.121,0.003 -0.181,0.008 l 0.008,-10e-4 c -0.039,-0.002 -0.085,-0.003 -0.132,-0.003 -0.44,0 -0.858,0.095 -1.234,0.267 l 0.019,-0.008 c -0.106,0.04 -0.179,0.14 -0.179,0.258 0,0.007 0,0.014 0.001,0.021 v -0.001 c 0.007,0.158 0.135,0.283 0.293,0.286 v 0 c 0.044,-0.003 0.084,-0.014 0.121,-0.031 l -0.002,10e-4 c 0.277,-0.129 0.601,-0.205 0.943,-0.205 0.035,0 0.069,0.001 0.104,0.002 h -0.005 c 0.863,0 1.337,0.417 1.337,1.223 v 0.156 c -0.396,-0.119 -0.851,-0.188 -1.321,-0.188 -0.02,0 -0.04,0 -0.06,0 h 0.003 c -1.115,0 -1.899,0.5 -1.899,1.45 L 19.56,16.953 c 0.055,0.788 0.708,1.405 1.505,1.405 0.06,0 0.119,-0.003 0.177,-0.01 l -0.007,0.001 c 0.017,0 0.037,0.001 0.056,0.001 0.637,0 1.202,-0.302 1.562,-0.771 l 0.003,-0.005 v 0.429 c 0,0.001 0,0.003 0,0.004 0,0.17 0.138,0.309 0.309,0.309 0.003,0 0.006,0 0.009,0 v 0 c 0.002,0 0.003,0 0.005,0 0.175,0 0.317,-0.142 0.317,-0.317 0,-0.004 0,-0.007 0,-0.011 v 0 -2.478 c 0.002,-0.03 0.003,-0.064 0.003,-0.099 0,-0.467 -0.181,-0.893 -0.477,-1.209 l 0.001,10e-4 C 22.69,13.912 22.254,13.732 21.775,13.722 h -0.002 z m 7.178,-0.002 c -1.177,0.039 -2.117,1.003 -2.117,2.186 0,0.045 0.001,0.089 0.004,0.133 v -0.006 c -0.002,0.035 -0.003,0.075 -0.003,0.116 0,1.217 0.986,2.204 2.202,2.206 v 0 l -0.01,0.016 c 0.019,0.001 0.042,0.001 0.064,0.001 0.626,0 1.192,-0.258 1.597,-0.674 v 0 c 0.06,-0.052 0.098,-0.128 0.098,-0.213 0,-0.155 -0.126,-0.281 -0.281,-0.281 -0.072,0 -0.138,0.027 -0.188,0.072 v 0 c -0.324,0.321 -0.769,0.519 -1.261,0.519 -0.004,0 -0.008,0 -0.011,0 h 0.001 c -0.001,0 -0.003,0 -0.004,0 -0.841,0 -1.524,-0.671 -1.545,-1.506 v -0.002 h 3.193 c 0.17,-0.001 0.307,-0.139 0.307,-0.309 0,0 0,0 0,0 v 0 c 0.004,-0.051 0.007,-0.11 0.007,-0.17 0,-1.141 -0.915,-2.068 -2.051,-2.087 H 28.95 Z m -12.706,-0.01 c -0.155,0.01 -0.281,0.122 -0.312,0.269 v 0.002 l -1.14,3.283 -1.127,-3.274 c -0.036,-0.158 -0.175,-0.275 -0.342,-0.275 0,0 0,0 -0.001,0 v 0 c -0.002,0 -0.003,0 -0.005,0 -0.18,0 -0.327,0.143 -0.332,0.322 v 10e-4 c 0.005,0.066 0.021,0.127 0.044,0.184 l -0.002,-0.004 1.362,3.795 0.025,-0.009 c 0.043,0.17 0.192,0.296 0.372,0.302 h 0.001 c 0.181,-10e-4 0.331,-0.129 0.366,-0.3 v -0.002 l 1.129,-3.228 1.12,3.228 c 0.035,0.173 0.185,0.302 0.366,0.302 h 0.023 c 0.177,-0.01 0.323,-0.134 0.366,-0.3 l 0.001,-0.003 1.371,-3.796 c 0.021,-0.053 0.036,-0.114 0.041,-0.178 v -0.002 c -0.006,-0.174 -0.148,-0.313 -0.322,-0.313 -0.003,0 -0.006,0 -0.009,0 v 0 c -0.001,0 -0.001,0 -0.002,0 -0.157,0 -0.289,0.111 -0.32,0.259 v 0.002 L 17.77,17.263 16.64,13.981 C 16.6,13.824 16.461,13.71 16.294,13.71 c -0.001,0 -0.001,0 -0.002,0 h -0.046 z m 8.416,-0.01 c -0.184,0.003 -0.332,0.153 -0.332,0.337 0,0.002 0,0.004 0,0.005 v 0 h 0.003 v 3.926 c -0.002,0.014 -0.003,0.03 -0.003,0.046 0,0.186 0.151,0.337 0.337,0.337 0.186,0 0.337,-0.151 0.337,-0.337 0,-0.016 -10e-4,-0.032 -0.003,-0.048 v 0.002 -1.527 c -0.01,-0.071 -0.015,-0.153 -0.015,-0.236 0,-0.931 0.694,-1.699 1.593,-1.816 l 0.009,-0.001 c 0.168,-0.018 0.298,-0.159 0.298,-0.331 0,-0.004 0,-0.008 0,-0.012 v 0.001 c 0,-0.004 0,-0.009 0,-0.014 0,-0.178 -0.144,-0.322 -0.322,-0.322 -0.004,0 -0.007,0 -0.011,0 h 0.001 c -0.696,0.05 -1.281,0.483 -1.547,1.088 L 25,14.811 v -0.767 c 0,-0.003 0,-0.007 0,-0.01 0,-0.184 -0.149,-0.332 -0.332,-0.332 -0.002,0 -0.005,0 -0.007,0 v 0 z M 1.629,13.626 c -0.09,0.003 -0.174,0.025 -0.25,0.062 l 0.004,-0.002 c -0.224,0.097 -0.378,0.316 -0.378,0.572 0,0.101 0.024,0.197 0.067,0.282 L 1.07,14.536 2.492,17.629 c 0.224,0.475 0.475,0.74 0.901,0.74 0.427,0 0.677,-0.275 0.9,-0.74 l 1.253,-2.732 c 0.027,-0.068 0.092,-0.115 0.168,-0.115 0.004,0 0.008,0 0.013,0 H 5.726 c 0.109,0.002 0.196,0.091 0.196,0.2 0,0 0,0 0,0 v 0 2.647 c -0.002,0.017 -0.003,0.037 -0.003,0.058 0,0.369 0.299,0.669 0.669,0.669 0.37,0 0.669,-0.299 0.669,-0.669 0,-0.02 -10e-4,-0.04 -0.003,-0.06 v 0.003 -2.162 c 0,-0.008 -10e-4,-0.018 -10e-4,-0.028 0,-0.366 0.297,-0.664 0.664,-0.664 0.016,0 0.031,10e-4 0.046,0.002 H 7.961 c 0.008,0 0.018,-0.001 0.027,-0.001 0.359,0 0.65,0.291 0.65,0.65 0,0.014 0,0.028 -10e-4,0.041 v -0.002 2.162 c -0.003,0.023 -0.005,0.05 -0.005,0.077 0,0.366 0.297,0.664 0.664,0.664 0.001,0 0.002,0 0.003,0 v 0 c 0.371,-0.001 0.672,-0.302 0.672,-0.674 0,-0.023 -10e-4,-0.046 -0.004,-0.069 v 0.003 -2.162 c 0,-0.008 -0.001,-0.018 -0.001,-0.028 0,-0.366 0.297,-0.664 0.664,-0.664 0.015,0 0.029,0 0.044,10e-4 h -0.002 c 0.009,0 0.019,-10e-4 0.03,-10e-4 0.359,0 0.65,0.291 0.65,0.65 0,0.014 0,0.028 -10e-4,0.041 v -0.002 2.162 c -0.002,0.022 -0.004,0.047 -0.004,0.072 0,0.369 0.299,0.668 0.668,0.668 0.369,0 0.668,-0.299 0.668,-0.668 0,-0.025 -10e-4,-0.049 -0.004,-0.074 v 0.003 -2.461 c -0.002,-0.85 -0.692,-1.538 -1.542,-1.538 -0.022,0 -0.043,0 -0.064,10e-4 h 0.003 c -0.558,0.01 -1.06,0.24 -1.424,0.607 v 0 C 9.361,13.864 8.913,13.627 8.409,13.627 c -0.044,0 -0.088,0.002 -0.131,0.005 h 0.006 c -0.523,0.049 -0.988,0.27 -1.343,0.605 L 6.942,14.236 C 6.656,13.88 6.227,13.65 5.744,13.632 H 5.741 C 5.723,13.631 5.703,13.631 5.682,13.631 c -0.638,0 -1.181,0.406 -1.384,0.973 L 4.295,14.614 3.384,16.758 2.218,14.005 2.232,14 c -0.1,-0.224 -0.321,-0.378 -0.578,-0.378 -0.009,0 -0.017,0 -0.026,10e-4 h 0.001 z"
         id="path1-3"
         style="fill:#6d7793;fill-opacity:0.917647;stroke-width:9.00286" /></g></g></svg>
