<svg
   version="1.1"
   id="svg1"
   xml:space="preserve"
   width="119.08661"
   height="37.160061"
   xmlns:inkscape="http://www.inkscape.org/namespaces/inkscape"
   xmlns:sodipodi="http://sodipodi.sourceforge.net/DTD/sodipodi-0.dtd"
   xmlns="http://www.w3.org/2000/svg"
   xmlns:svg="http://www.w3.org/2000/svg"><defs
     id="defs1" /><sodipodi:namedview
     id="namedview1"
     pagecolor="#505050"
     bordercolor="#eeeeee"
     borderopacity="1"
     inkscape:showpageshadow="0"
     inkscape:pageopacity="0"
     inkscape:pagecheckerboard="0"
     inkscape:deskcolor="#d1d1d1" /><inkscape:clipboard
     style="font-variation-settings:normal;opacity:1;vector-effect:none;fill:#6d7793;fill-opacity:1;stroke-width:2.88209998;stroke-linecap:butt;stroke-linejoin:miter;stroke-miterlimit:4;stroke-dasharray:none;stroke-dashoffset:0;stroke-opacity:1;-inkscape-stroke:none;stop-color:#000000;stop-opacity:1"
     min="231.79072,301.13661"
     max="350.87733,338.29667"
     geom-min="231.79072,301.13661"
     geom-max="350.87733,338.29667" /><g
     id="g1"
     transform="translate(78.58202,-177.08633)"><path
       class="cls-1"
       d="m -78.58202,179.07222 h 14.48084 l 1.584936,0.0637 1.521284,0.13367 1.457632,0.33099 1.387614,0.33099 1.253946,0.52831 1.190293,0.52832 1.126641,0.66198 1.056624,0.72563 0.922955,0.79565 0.922954,0.8593 0.795651,0.92296 0.725633,0.99297 0.591964,1.05662 0.59833,1.05663 0.464659,1.12664 0.394643,1.12664 20.565976,-13.22689 7.47275,5.02214 -16.002124,10.318 2.577908,1.71861 16.135793,-10.24798 6.944438,4.6275 -15.938472,10.51532 2.711577,1.65495 16.1994458,-10.31799 v -11.30461 h 11.902932 v 22.54556 H 15.043773 V 212.1968 H -7.4381292 v -10.84631 l -20.0376638,12.8959 -20.432307,-13.81886 -0.394642,1.1903 -0.394643,1.12664 -0.591964,1.12664 -0.598329,1.12664 -0.725633,0.99297 -0.795651,0.99297 -0.859303,0.92296 -0.992972,0.79565 -0.992971,0.79565 -1.190294,0.66198 -1.190293,0.59197 -1.323962,0.52831 -1.387615,0.39464 -1.457632,0.26734 -1.521284,0.19732 -1.654953,0.0636 H -78.58202 v -33.12452 0 z m 11.37462,10.38165 h 3.10622 l 1.387615,0.13367 1.126641,0.39464 0.992972,0.59197 0.859302,0.79565 0.59833,0.92295 0.46466,0.99297 0.267338,1.12664 0.06365,1.12665 -0.06365,1.12664 -0.267338,1.12664 -0.46466,0.99297 -0.661982,0.92296 -0.79565,0.79565 -0.992972,0.59196 -1.190293,0.39464 -1.323963,0.13367 h -3.10622 v -12.1639 0 z M 18.022689,179.07222 H 29.98927 v 22.54556 h 10.51532 v 10.57897 H 18.022689 Z"
       id="path1-0"
       style="fill:#6d7793;fill-opacity:1;fill-rule:evenodd;stroke-width:2.8821" /></g></svg>
