<svg
   version="1.1"
   id="svg1"
   xml:space="preserve"
   width="73.907654"
   height="73.934448"
   xmlns:inkscape="http://www.inkscape.org/namespaces/inkscape"
   xmlns:sodipodi="http://sodipodi.sourceforge.net/DTD/sodipodi-0.dtd"
   xmlns="http://www.w3.org/2000/svg"
   xmlns:svg="http://www.w3.org/2000/svg"><defs
     id="defs1" /><sodipodi:namedview
     id="namedview1"
     pagecolor="#505050"
     bordercolor="#eeeeee"
     borderopacity="1"
     inkscape:showpageshadow="0"
     inkscape:pageopacity="0"
     inkscape:pagecheckerboard="0"
     inkscape:deskcolor="#d1d1d1" /><inkscape:clipboard
     min="248.94434,355.11251"
     max="322.85199,429.04696"
     geom-min="248.94434,355.11251"
     geom-max="322.85199,429.04696" /><g
     id="g1"
     transform="matrix(2.4642736,0,0,2.4642736,-330.39953,-786.41571)"><path
       d="m 149.02981,319.17615 c 0.4453,-0.003 0.8889,-0.10342 1.33078,-0.009 1.95645,0.17351 3.88544,0.71112 5.62572,1.62737 2.2513,1.15301 4.18808,2.90601 5.59314,5.0069 1.43335,2.13678 2.28199,4.65304 2.47344,7.21718 -0.0316,0.67864 -0.0512,1.36156 0.0146,2.03849 -0.14008,1.94959 -0.62821,3.88294 -1.49822,5.63852 -0.99223,2.0402 -2.46165,3.84535 -4.25048,5.24023 -2.22909,1.7479 -4.96416,2.84107 -7.78642,3.10013 -0.42983,0.0308 -0.85907,0.11026 -1.29138,0.077 -0.28641,-0.0189 -0.57958,0.0727 -0.85471,-0.0446 1.05395,-2.9649 2.10686,-5.93084 3.17012,-8.89327 1.1572,-0.0214 2.31542,0.008 3.47262,-0.0137 0.73855,-0.0256 1.46847,-0.4753 1.7112,-1.19317 0.97865,-2.75559 1.98208,-5.50348 2.92996,-8.27104 0.15556,-0.41796 0.24188,-0.88378 0.11794,-1.32139 -0.16752,-0.5547 -0.67513,-0.94702 -1.22052,-1.09402 -0.47342,-0.14701 -0.9736,-0.0932 -1.4607,-0.10172 -1.48549,-0.004 -2.97097,0.008 -4.45561,-0.007 -0.024,0.0496 -0.0727,0.14786 -0.0966,0.19658 -2.40525,6.75564 -4.80605,13.51308 -7.22061,20.26521 -2.48037,-0.6436 -4.7915,-1.9325 -6.63426,-3.71373 -2.21969,-2.12403 -3.76073,-4.94877 -4.33082,-7.96847 -0.17863,-0.90684 -0.24359,-1.82993 -0.29317,-2.75046 0.0402,-1.91711 0.35471,-3.84277 1.07694,-5.6257 1.76155,-4.50347 5.83768,-8.04967 10.57619,-9.06336 -2.42567,6.72573 -4.79492,13.47196 -7.21974,20.19854 0.1547,0.047 0.31709,0.029 0.47607,0.0307 0.88377,-0.004 1.7684,0.002 2.65217,-0.002 0.12052,-8.8e-4 0.10769,-0.16838 0.15812,-0.2453 1.06497,-3.00687 2.14276,-6.00947 3.21115,-9.01464 0.0641,-0.18633 0.12394,-0.37436 0.20941,-0.55128 0.55385,0.009 1.1077,-0.003 1.66155,0.006 -1.16155,3.25731 -2.31284,6.51974 -3.49149,9.77097 0.12308,0.0496 0.25727,0.0341 0.38633,0.0369 0.92821,-0.009 1.85643,0.006 2.78465,-0.007 1.04872,-2.95987 2.11028,-5.9146 3.16166,-8.87276 0.2247,-0.60514 0.24437,-1.32053 -0.11283,-1.87866 -0.31196,-0.49401 -0.90428,-0.72992 -1.46924,-0.753 -0.77265,-0.0231 -1.54617,0.002 -2.31969,-0.0119 1.06318,-3.01704 2.15806,-6.02306 3.21277,-9.04361 z"
       fill="#015294"
       id="path2-1"
       style="fill:#6d7793;fill-opacity:1;stroke-width:2.88211" /><path
       d="m 155.18809,329.96773 c 0.0922,-0.10427 0.25641,-0.041 0.37941,-0.059 0.42906,0.008 0.85804,-0.004 1.28727,0.006 -0.99923,2.85216 -2.04541,5.6881 -3.02832,8.54626 -0.55556,0.0393 -1.1154,0.0154 -1.67182,0.0119 1.01455,-2.83337 2.01883,-5.67101 3.03346,-8.50523 z"
       fill="#015294"
       id="path3-8"
       style="fill:#6d7793;fill-opacity:1;stroke-width:2.88211" /></g></svg>
