<?xml version="1.0" encoding="UTF-8" standalone="no"?>
<!-- Created with Inkscape (http://www.inkscape.org/) -->

<svg
   version="1.1"
   id="svg1"
   xml:space="preserve"
   width="178.00427"
   height="32.083202"
   xmlns:inkscape="http://www.inkscape.org/namespaces/inkscape"
   xmlns:sodipodi="http://sodipodi.sourceforge.net/DTD/sodipodi-0.dtd"
   xmlns="http://www.w3.org/2000/svg"
   xmlns:svg="http://www.w3.org/2000/svg"><defs
     id="defs1" /><sodipodi:namedview
     id="namedview1"
     pagecolor="#505050"
     bordercolor="#eeeeee"
     borderopacity="1"
     inkscape:showpageshadow="0"
     inkscape:pageopacity="0"
     inkscape:pagecheckerboard="0"
     inkscape:deskcolor="#d1d1d1" /><inkscape:clipboard
     style="font-variation-settings:normal;opacity:1;vector-effect:none;fill:#6d7793;fill-opacity:1;stroke-width:1.00000154;stroke-linecap:butt;stroke-linejoin:miter;stroke-miterlimit:4;stroke-dasharray:none;stroke-dashoffset:0;stroke-opacity:1;-inkscape-stroke:none;stop-color:#000000;stop-opacity:1"
     min="181.91877,609.12276"
     max="359.92304,641.20596"
     geom-min="181.91877,609.12276"
     geom-max="359.92304,641.20596" /><g
     id="g1"
     transform="matrix(3.7795276,0,0,3.7795276,-181.91877,-609.12277)"><g
       id="g6"
       transform="matrix(0.11252227,0,0,0.11252227,48.132315,161.16373)"
       style="fill:#6d7793;fill-opacity:1;stroke-width:2.35139">
	<path
   class="st0"
   d="M 76.72,1.54 C 73.34,-0.3 69.19,1.1 67.45,4.66 L 42.62,58.12 v 0 c -0.58,1.15 -1.08,1.94 -2.4,1.94 -1.32,0 -1.83,-0.79 -2.4,-1.94 v 0 L 13,4.65 C 11.26,1.09 7.11,-0.3 3.73,1.53 0.35,3.37 -0.97,7.74 0.77,11.29 l 24.25,49.48 2.76,5.62 c 2.41,4.93 7.18,7.99 12.45,7.99 5.26,0 10.03,-3.06 12.45,-7.99 l 2.76,-5.62 24.25,-49.48 c 1.73,-3.54 0.4,-7.91 -2.97,-9.75 z"
   id="path1-7"
   style="fill:#6d7793;fill-opacity:1;stroke-width:2.35139" />
	<path
   class="st0"
   d="m 406.17,0.73 c -4.67,-0.02 -8.76,2.9 -10.72,6.91 -6.31,12.87 -24.86,51.16 -24.94,51.29 -0.14,0.24 -0.53,1.13 -1.33,1.13 -0.75,0 -1.19,-0.84 -1.33,-1.14 v 0 C 361.7,46.21 349.57,21.11 343.2,8.12 c -2.45,-5.01 -6.56,-7.4 -11,-7.4 0,0 -0.01,0 -0.01,0 -6.83,0 -12.36,5.77 -12.36,13.62 v 52.63 c 0,3.2 1.83,6.16 4.64,7.09 4.58,1.5 8.51,-2.5 8.51,-7.23 l -0.96,-51.3 c 0,-0.53 0.64,-0.72 0.88,-0.26 l 25.33,51.27 c 2.35,4.91 6.43,7.84 10.95,7.84 4.51,0 8.59,-2.93 10.95,-7.84 l 25.34,-51.26 c 0.25,-0.48 0.91,-0.29 0.91,0.27 l -0.97,51.59 c 0,4.08 3.05,7.37 6.78,7.24 3.6,-0.12 6.37,-3.58 6.37,-7.55 0,0 0,-39.36 0,-52.47 0.01,-7.93 -5.54,-13.6 -12.39,-13.63 z"
   id="path2"
   style="fill:#6d7793;fill-opacity:1;stroke-width:2.35139" />
	<path
   class="st0"
   d="M 311.42,63.69 283.51,8.63 c -2.42,-4.9 -7.18,-7.94 -12.42,-7.94 -3.29,0 -6.38,1.19 -8.83,3.29 -1.47,1.25 -2.71,2.83 -3.61,4.66 l -27.77,54.8 c -0.03,0.06 -0.05,0.12 -0.08,0.17 l -0.04,0.08 c -1.29,2.55 -0.98,5.55 0.55,7.73 0.04,0.06 0.08,0.11 0.12,0.17 0.04,0.06 0.09,0.12 0.14,0.18 0.5,0.65 1.1,1.21 1.83,1.65 2.35,1.42 5.13,1.21 7.23,-0.25 0.03,-0.02 0.06,-0.04 0.08,-0.06 0.15,-0.11 0.3,-0.22 0.44,-0.34 0.12,-0.1 0.23,-0.21 0.34,-0.32 0.05,-0.05 0.1,-0.09 0.15,-0.14 0.5,-0.51 0.93,-1.1 1.27,-1.78 l 1.03,-2.18 5.81,-12.18 c 0.15,-0.31 0.45,-0.51 0.78,-0.51 v 0 h 25.65 c 0,0 0,0 0.01,0 3.43,0 6.22,-2.94 6.22,-6.55 0,-3.62 -2.79,-6.55 -6.22,-6.55 H 260.8 v 0 h -3.77 c -0.41,0 -0.67,-0.44 -0.52,-0.83 l 1.43,-3.03 10.49,-21.14 0.04,-0.09 c 0.02,-0.04 0.04,-0.08 0.06,-0.12 0,0 0,0.01 0,0 0.17,-0.35 0.73,-1.86 1.75,-2.17 0.56,-0.17 1.15,-0.15 1.55,-0.03 1.06,0.32 1.54,1.63 2,2.59 0,0.01 0,0 0,0 l 25.44,52.82 c 1.24,2.44 3.62,3.84 6.08,3.84 0.78,0 1.57,-0.15 2.34,-0.44 0.05,-0.02 0.1,-0.03 0.14,-0.05 0.19,-0.08 0.37,-0.17 0.55,-0.27 0.07,-0.03 0.14,-0.06 0.2,-0.1 0.04,-0.02 0.07,-0.05 0.11,-0.07 0.05,-0.03 0.11,-0.05 0.16,-0.09 0.08,-0.05 0.15,-0.11 0.23,-0.16 0.07,-0.05 0.13,-0.09 0.19,-0.14 0.1,-0.08 0.2,-0.15 0.3,-0.23 0.11,-0.09 0.22,-0.19 0.33,-0.29 0.03,-0.03 0.06,-0.05 0.08,-0.08 2.28,-2.22 2.95,-5.81 1.44,-8.79 z"
   id="path3"
   style="fill:#6d7793;fill-opacity:1;stroke-width:2.35139" />
	<g
   id="g4"
   style="fill:#6d7793;fill-opacity:1;stroke-width:2.35139">
		<path
   class="st0"
   d="m 95.45,45.53 h 46.97 c 0.89,-0.01 8.16,-0.6 8.16,-8.82 C 150.59,16.47 134.94,0 115.71,0 96.49,0 80.85,16.47 80.85,36.72 c 0,0.46 0.03,1.74 0.03,1.93 -0.03,23.12 14.83,35.56 34.49,36.71 0.94,0.05 1.86,0.08 2.76,0.08 7.56,0 13.94,-1.96 20.87,-6.34 0.71,-0.44 3.48,-2.29 6.31,-5.94 2.25,-2.9 2.45,-7.25 0,-9.51 -3.53,-3.26 -7.16,-1.5 -10.4,1.26 -5.09,4.33 -9.03,7.71 -19.18,7.72 -9.57,0 -18.62,-5.46 -20.77,-16.37 -0.08,-0.38 0.14,-0.73 0.49,-0.73 z M 94.93,31.98 c 1.31,-10.6 8.6,-20 20.76,-20 12.16,0 19.86,9.21 21.08,20 0.04,0.39 -0.21,0.76 -0.59,0.76 H 95.52 c -0.38,0 -0.64,-0.36 -0.59,-0.76 z"
   id="path4"
   style="fill:#6d7793;fill-opacity:1;stroke-width:2.35139" />
	</g>
	<g
   id="g5"
   style="fill:#6d7793;fill-opacity:1;stroke-width:2.35139">
		<path
   class="st0"
   d="m 172.72,45.53 h 46.97 c 0.89,-0.01 8.16,-0.6 8.16,-8.82 C 227.85,16.47 212.2,0 192.98,0 c -19.23,0 -34.87,16.47 -34.87,36.72 0,0.46 0.03,1.74 0.03,1.93 -0.03,23.12 14.83,35.56 34.49,36.71 0.94,0.05 1.86,0.08 2.76,0.08 7.56,0 13.94,-1.96 20.87,-6.34 0.71,-0.44 3.48,-2.29 6.31,-5.94 2.25,-2.9 2.45,-7.25 0,-9.51 -3.53,-3.26 -7.16,-1.5 -10.4,1.26 -5.09,4.33 -9.03,7.71 -19.18,7.72 -9.57,0 -18.62,-5.46 -20.77,-16.37 -0.08,-0.38 0.14,-0.73 0.5,-0.73 z m -0.53,-13.55 c 1.31,-10.6 8.6,-20 20.76,-20 12.16,0 19.86,9.21 21.08,20 0.04,0.39 -0.21,0.76 -0.59,0.76 h -40.67 c -0.37,0 -0.63,-0.36 -0.58,-0.76 z"
   id="path5"
   style="fill:#6d7793;fill-opacity:1;stroke-width:2.35139" />
	</g>
</g></g></svg>
