<svg
   version="1.1"
   id="svg1"
   xml:space="preserve"
   width="171.0407"
   height="90.171204"
   xmlns:inkscape="http://www.inkscape.org/namespaces/inkscape"
   xmlns:sodipodi="http://sodipodi.sourceforge.net/DTD/sodipodi-0.dtd"
   xmlns="http://www.w3.org/2000/svg"
   xmlns:svg="http://www.w3.org/2000/svg"><defs
     id="defs1" /><sodipodi:namedview
     id="namedview1"
     pagecolor="#505050"
     bordercolor="#eeeeee"
     borderopacity="1"
     inkscape:showpageshadow="0"
     inkscape:pageopacity="0"
     inkscape:pagecheckerboard="0"
     inkscape:deskcolor="#d1d1d1" /><inkscape:clipboard
     style="font-variation-settings:normal;opacity:1;vector-effect:none;fill:#6d7793;fill-opacity:0.917647;stroke-width:72.05255441;stroke-linecap:butt;stroke-linejoin:miter;stroke-miterlimit:4;stroke-dasharray:none;stroke-dashoffset:0;stroke-opacity:1;-inkscape-stroke:none;stop-color:#000000;stop-opacity:1"
     min="434.39963,524.2007"
     max="605.44032,614.3719"
     geom-min="434.39963,524.2007"
     geom-max="605.44032,614.3719" /><g
     id="g1"
     transform="translate(-124.02689,-400.15043)"><g
       style="fill:#6d7793;fill-opacity:0.917647;stroke-width:12.634"
       id="g10"
       transform="matrix(5.7030675,0,0,5.7030675,118.30101,353.9898)"><path
         d="m 1.004,14.41 c 0.026,0.338 0.307,0.602 0.649,0.602 0.342,0 0.623,-0.264 0.649,-0.6 V 14.41 12.967 c -0.016,-0.346 -0.3,-0.621 -0.649,-0.621 -0.349,0 -0.633,0.275 -0.649,0.62 v 0.001 z m 3.594,0 c 0.03,0.335 0.31,0.595 0.65,0.595 0.34,0 0.62,-0.26 0.65,-0.593 v -0.003 -3.235 c -0.016,-0.346 -0.3,-0.621 -0.649,-0.621 -0.349,0 -0.633,0.275 -0.649,0.62 v 10e-4 3.235 z m 3.576,1.304 c 0.016,0.346 0.3,0.621 0.649,0.621 0.349,0 0.633,-0.275 0.649,-0.62 V 15.714 8.715 C 9.456,8.369 9.172,8.094 8.823,8.094 8.474,8.094 8.19,8.369 8.174,8.714 v 10e-4 z m 3.607,-1.304 c 0.016,0.346 0.3,0.621 0.649,0.621 0.349,0 0.633,-0.275 0.649,-0.62 V 14.41 11.175 c -0.016,-0.346 -0.3,-0.621 -0.649,-0.621 -0.349,0 -0.633,0.275 -0.649,0.62 v 0.001 z m 3.587,0 c 0.034,0.332 0.311,0.588 0.649,0.588 0.338,0 0.616,-0.257 0.649,-0.586 v -0.003 -1.443 c -0.016,-0.346 -0.3,-0.621 -0.649,-0.621 -0.349,0 -0.633,0.275 -0.649,0.62 v 10e-4 1.443 z m 3.622,0 c 0.022,0.342 0.304,0.611 0.65,0.611 0.346,0 0.628,-0.269 0.65,-0.609 V 14.41 11.175 c -0.016,-0.346 -0.3,-0.621 -0.649,-0.621 -0.349,0 -0.633,0.275 -0.649,0.62 v 0.001 3.235 z m 3.547,1.304 c 0.026,0.338 0.307,0.602 0.649,0.602 0.342,0 0.623,-0.264 0.649,-0.6 V 15.714 8.715 c -0.016,-0.346 -0.3,-0.621 -0.649,-0.621 -0.349,0 -0.633,0.275 -0.649,0.62 v 10e-4 z m 3.606,-1.304 c 0.027,0.338 0.308,0.603 0.65,0.603 0.342,0 0.624,-0.264 0.65,-0.601 V 14.41 11.175 c -0.022,-0.342 -0.304,-0.611 -0.65,-0.611 -0.346,0 -0.628,0.269 -0.65,0.609 v 0.002 z m 3.554,0 c 0.016,0.346 0.3,0.621 0.649,0.621 0.349,0 0.633,-0.275 0.649,-0.62 V 14.41 12.967 c -0.016,-0.346 -0.3,-0.621 -0.649,-0.621 -0.349,0 -0.633,0.275 -0.649,0.62 v 0.001 z m -6.921,6.791 c 0.024,1.495 1.242,2.698 2.74,2.698 0.21,0 0.414,-0.024 0.61,-0.068 l -0.018,0.003 c 1.247,-0.242 2.176,-1.326 2.176,-2.626 0,-0.969 -0.516,-1.818 -1.288,-2.287 l -0.012,-0.007 c -0.412,-0.259 -0.913,-0.412 -1.45,-0.412 -1.502,0 -2.724,1.201 -2.757,2.696 v 0.003 z m 1.905,-1.067 c 0.234,-0.192 0.536,-0.308 0.865,-0.308 0.756,0 1.369,0.613 1.369,1.369 0,0.427 -0.196,0.809 -0.502,1.06 l -0.002,0.002 -0.021,0.017 c -0.228,0.177 -0.519,0.283 -0.834,0.283 -0.756,0 -1.37,-0.613 -1.37,-1.37 0,-0.423 0.192,-0.801 0.493,-1.052 l 0.002,-0.002 z M 9.483,23.803 h 1.312 V 18.596 H 9.483 Z m 3.093,-1.244 -0.005,1.196 0.087,0.015 c 0.232,0.046 0.517,0.084 0.805,0.105 l 0.024,0.001 c 0.14,0.014 0.303,0.022 0.468,0.022 0.093,0 0.186,-0.003 0.279,-0.008 l -0.013,10e-4 c 0.253,-0.019 0.487,-0.066 0.711,-0.136 l -0.022,0.006 c 0.275,-0.079 0.514,-0.211 0.716,-0.383 l -0.003,0.002 c 0.184,-0.158 0.326,-0.359 0.413,-0.587 l 0.003,-0.01 c 0.069,-0.175 0.11,-0.377 0.11,-0.589 0,-0.22 -0.043,-0.43 -0.122,-0.622 l 0.004,0.011 C 15.947,21.377 15.82,21.204 15.66,21.067 L 15.658,21.065 C 15.505,20.928 15.322,20.819 15.122,20.75 L 15.111,20.747 14.209,20.412 C 14.101,20.365 14.015,20.283 13.964,20.18 l -0.001,-0.003 c -0.017,-0.037 -0.027,-0.081 -0.027,-0.127 0,-0.054 0.014,-0.104 0.038,-0.148 l -10e-4,0.002 c 0.047,-0.076 0.112,-0.136 0.19,-0.176 l 0.003,-0.001 c 0.093,-0.046 0.202,-0.079 0.316,-0.092 h 0.005 c 0.08,-0.012 0.173,-0.019 0.268,-0.019 0.109,0 0.215,0.009 0.318,0.027 l -0.011,-0.002 c 0.253,0.028 0.479,0.07 0.699,0.127 l -0.033,-0.007 0.047,0.01 v -1.104 l -0.086,-0.019 c -0.185,-0.047 -0.415,-0.09 -0.65,-0.118 L 15.01,18.527 c -0.138,-0.019 -0.298,-0.03 -0.461,-0.03 -0.152,0 -0.302,0.01 -0.449,0.028 l 0.018,-0.002 c -0.392,0.037 -0.744,0.187 -1.03,0.415 l 0.004,-0.003 c -0.196,0.155 -0.347,0.36 -0.436,0.595 l -0.003,0.009 c -0.062,0.167 -0.098,0.36 -0.098,0.562 0,0.202 0.036,0.395 0.102,0.573 l -0.004,-0.012 c 0.071,0.187 0.178,0.346 0.314,0.476 h 10e-4 c 0.118,0.114 0.253,0.212 0.399,0.29 l 0.01,0.005 c 0.178,0.097 0.384,0.18 0.601,0.239 l 0.02,0.005 c 0.071,0.021 0.142,0.044 0.212,0.067 l 0.106,0.039 0.03,0.012 c 0.11,0.04 0.204,0.099 0.283,0.175 v 0 c 0.055,0.051 0.098,0.114 0.125,0.185 l 0.001,0.003 c 0.008,0.031 0.013,0.066 0.013,0.103 0,0.035 -0.004,0.069 -0.013,0.101 l 10e-4,-0.003 c -0.035,0.108 -0.109,0.195 -0.205,0.246 l -0.002,0.001 c -0.1,0.052 -0.216,0.09 -0.338,0.107 l -0.006,10e-4 c -0.117,0.019 -0.253,0.03 -0.391,0.03 -0.05,0 -0.1,-0.001 -0.15,-0.004 h 0.007 c -0.265,-0.021 -0.503,-0.054 -0.737,-0.099 l 0.041,0.007 q -0.18,-0.039 -0.359,-0.084 z M 7.672,23.712 V 22.324 L 7.645,22.336 C 7.353,22.481 7.011,22.572 6.65,22.589 H 6.644 C 6.61,22.592 6.57,22.593 6.53,22.593 6.193,22.593 5.882,22.48 5.633,22.29 l 0.004,0.003 C 5.435,22.136 5.282,21.924 5.201,21.68 L 5.198,21.671 C 5.15,21.531 5.123,21.37 5.123,21.202 c 0,-0.13 0.016,-0.255 0.047,-0.375 l -0.002,0.01 c 0.067,-0.289 0.226,-0.534 0.444,-0.709 l 0.002,-0.002 c 0.191,-0.161 0.432,-0.27 0.696,-0.302 l 0.006,-0.001 c 0.077,-0.009 0.167,-0.014 0.257,-0.014 0.391,0 0.759,0.097 1.081,0.268 l -0.013,-0.006 0.03,0.016 V 18.691 L 7.607,18.674 C 7.282,18.567 6.908,18.505 6.52,18.505 c -0.062,0 -0.124,0.002 -0.185,0.005 H 6.344 C 5.933,18.521 5.547,18.614 5.197,18.775 L 5.215,18.767 C 4.847,18.938 4.538,19.18 4.294,19.476 L 4.29,19.48 c -0.373,0.469 -0.599,1.07 -0.599,1.724 0,0.624 0.206,1.2 0.553,1.664 L 4.239,22.861 c 0.363,0.463 0.869,0.799 1.452,0.941 l 0.018,0.004 c 0.244,0.062 0.525,0.098 0.814,0.098 0.373,0 0.732,-0.06 1.069,-0.17 l -0.024,0.007 z m 13.74,0 v -1.388 l -0.027,0.012 c -0.292,0.145 -0.634,0.236 -0.995,0.253 h -0.006 c -0.034,0.003 -0.073,0.004 -0.113,0.004 -0.338,0 -0.649,-0.113 -0.898,-0.303 l 0.004,0.003 C 19.175,22.136 19.022,21.924 18.94,21.68 l -0.003,-0.009 c -0.047,-0.139 -0.074,-0.3 -0.074,-0.467 0,-0.13 0.016,-0.257 0.047,-0.377 l -0.002,0.01 c 0.068,-0.289 0.227,-0.534 0.444,-0.709 l 0.002,-0.002 c 0.191,-0.161 0.432,-0.27 0.696,-0.302 l 0.006,-0.001 c 0.077,-0.009 0.167,-0.014 0.257,-0.014 0.391,0 0.759,0.097 1.081,0.268 l -0.013,-0.006 0.03,0.016 v -1.396 l -0.064,-0.017 c -0.325,-0.107 -0.699,-0.169 -1.087,-0.169 -0.062,0 -0.124,0.002 -0.185,0.005 h 0.009 c -0.411,0.011 -0.797,0.104 -1.147,0.265 l 0.018,-0.008 c -0.368,0.171 -0.676,0.412 -0.92,0.709 l -0.004,0.005 c -0.374,0.469 -0.599,1.069 -0.599,1.723 0,0.625 0.206,1.201 0.555,1.665 l -0.005,-0.007 c 0.363,0.463 0.869,0.798 1.45,0.941 l 0.018,0.004 c 0.244,0.062 0.525,0.098 0.814,0.098 0.373,0 0.732,-0.06 1.069,-0.17 l -0.024,0.007 0.102,-0.029 z"
         id="path1-78"
         style="fill:#6d7793;fill-opacity:0.917647;stroke-width:12.634" /></g></g></svg>
