<svg
   version="1.1"
   id="svg1"
   xml:space="preserve"
   width="176.79967"
   height="46.758339"
   xmlns:inkscape="http://www.inkscape.org/namespaces/inkscape"
   xmlns:sodipodi="http://sodipodi.sourceforge.net/DTD/sodipodi-0.dtd"
   xmlns="http://www.w3.org/2000/svg"
   xmlns:svg="http://www.w3.org/2000/svg"><defs
     id="defs1" /><sodipodi:namedview
     id="namedview1"
     pagecolor="#505050"
     bordercolor="#eeeeee"
     borderopacity="1"
     inkscape:showpageshadow="0"
     inkscape:pageopacity="0"
     inkscape:pagecheckerboard="0"
     inkscape:deskcolor="#d1d1d1" /><inkscape:clipboard
     style="font-variation-settings:normal;opacity:1;vector-effect:none;fill:#6d7793;fill-opacity:0.917647;stroke-width:37.38015951;stroke-linecap:butt;stroke-linejoin:miter;stroke-miterlimit:4;stroke-dasharray:none;stroke-dashoffset:0;stroke-opacity:1;-inkscape-stroke:none;stop-color:#000000;stop-opacity:1"
     min="430.22554,461.13134"
     max="607.02521,507.88968"
     geom-min="430.22554,461.13134"
     geom-max="607.02521,507.88968" /><g
     id="g1"
     transform="translate(-119.8528,-337.08106)"><g
       id="g9"
       transform="matrix(12.969765,0,0,12.969765,-680.1877,-1621.4017)"
       style="stroke-width:2.8821"><path
         fill-rule="evenodd"
         clip-rule="evenodd"
         fill="#cc1e4c"
         d="m 64.017526,154.5662 -0.462241,-0.82481 h 1.671034 l -0.839087,-1.7777 -1.230142,2.60251 h -1.472048 l 1.927148,-3.51264 h 1.550156 l 1.912794,3.51264 z"
         id="path2-6"
         style="fill:#6d7793;fill-opacity:0.917647;stroke-width:2.8821" /><path
         d="m 67.08228,152.52546 h 1.834612 c 0.462169,0 0.647094,-0.0284 0.647094,-0.3555 0,-0.31287 -0.149369,-0.34843 -0.625818,-0.34843 H 67.07514 l -0.412404,-0.76797 h 2.588305 c 1.223074,0 1.678175,0.53328 1.678175,1.10212 0,0.54756 -0.419617,1.15196 -1.763498,1.15196 h -0.611537 v 1.25856 h -1.479114 v -2.04074 z"
         fill-rule="evenodd"
         clip-rule="evenodd"
         fill="#cc1e4c"
         id="path3-1"
         style="fill:#6d7793;fill-opacity:0.917647;stroke-width:2.8821" /><path
         d="m 74.761944,154.30324 c -0.44082,0.20605 -0.988311,0.30566 -1.571504,0.30566 -1.763352,0 -2.367895,-0.98124 -2.367895,-1.79199 0,-1.02387 0.896067,-1.81319 2.439081,-1.81319 0.561845,0 1.052431,0.0853 1.464907,0.24183 v 1.0168 c -0.426685,-0.22755 -0.796537,-0.32708 -1.230288,-0.32708 -0.739485,0 -1.343955,0.33422 -1.343955,0.86751 0,0.52621 0.618679,0.86757 1.358235,0.86757 0.426612,0 0.775115,-0.0854 1.251492,-0.3058 v 0.93869 z"
         fill-rule="evenodd"
         clip-rule="evenodd"
         fill="#cc1e4c"
         id="path4-2"
         style="fill:#6d7793;fill-opacity:0.917647;stroke-width:2.8821" /><path
         d="m 74.863077,151.49066 c 0,-0.12853 0.104267,-0.22325 0.227405,-0.22325 0.121973,0 0.226239,0.0947 0.226239,0.22325 0,0.12969 -0.104339,0.22449 -0.226239,0.22449 -0.123138,0 -0.227405,-0.0948 -0.227405,-0.22449 z m 0.227405,0.18718 c 0.101352,0 0.18121,-0.0793 0.18121,-0.18718 0,-0.10602 -0.07993,-0.18595 -0.18121,-0.18595 -0.102372,0 -0.182376,0.0799 -0.182376,0.18595 0,0.10784 0.08,0.18718 0.182376,0.18718 z m -0.04729,-0.0575 h -0.03912 v -0.25822 h 0.09829 c 0.06106,0 0.09122,0.0225 0.09122,0.0735 0,0.0462 -0.02892,0.0664 -0.06689,0.0711 l 0.07337,0.11367 h -0.04379 l -0.0682,-0.11192 h -0.04488 v 0.11192 l 0.04678,-0.14507 c 0.03315,0 0.06281,-0.002 0.06281,-0.042 0,-0.032 -0.02907,-0.0379 -0.05632,-0.0379 h -0.05319 v 0.0799 h 0.04678 z"
         fill-rule="evenodd"
         clip-rule="evenodd"
         id="path5-93"
         style="fill:#6d7793;fill-opacity:0.917647;stroke-width:2.8821" /></g></g></svg>
