<?xml version="1.0" encoding="UTF-8" standalone="no"?>
<!-- Created with Inkscape (http://www.inkscape.org/) -->

<svg
   version="1.1"
   id="svg1"
   xml:space="preserve"
   width="196.83029"
   height="28.832403"
   xmlns:inkscape="http://www.inkscape.org/namespaces/inkscape"
   xmlns:sodipodi="http://sodipodi.sourceforge.net/DTD/sodipodi-0.dtd"
   xmlns="http://www.w3.org/2000/svg"
   xmlns:svg="http://www.w3.org/2000/svg"><defs
     id="defs1" /><sodipodi:namedview
     id="namedview1"
     pagecolor="#505050"
     bordercolor="#eeeeee"
     borderopacity="1"
     inkscape:showpageshadow="0"
     inkscape:pageopacity="0"
     inkscape:pagecheckerboard="0"
     inkscape:deskcolor="#d1d1d1" /><inkscape:clipboard
     style="font-variation-settings:normal;opacity:1;vector-effect:none;fill:#6d7793;fill-opacity:1;stroke-width:2.35050331;stroke-linecap:butt;stroke-linejoin:miter;stroke-miterlimit:4;stroke-dasharray:none;stroke-dashoffset:0;stroke-opacity:1;-inkscape-stroke:none;stop-color:#000000;stop-opacity:1"
     min="180.04232,452.24175"
     max="376.87261,481.07415"
     geom-min="180.04232,452.24175"
     geom-max="376.87261,481.07415" /><g
     id="g1"
     transform="matrix(3.7795276,0,0,3.7795276,-180.04232,-452.24176)"><path
       d="m 99.71417,126.08702 v 0.93756 h -0.157265 v -0.72253 h -0.0099 l -0.260735,0.72253 h -0.135368 l -0.258774,-0.72253 v 0.72253 h -0.159271 v -0.93756 h 0.236923 l 0.260735,0.73449 0.246767,-0.73449 h 0.236929 m -1.082818,0 v 0.13532 h -0.304622 v 0.80214 h -0.157265 v -0.80214 h -0.304438 v -0.13532 h 0.766283 m -3.937184,-1.39935 c 0.236773,-0.76638 0.236773,-1.21819 0.0099,-1.51282 -0.169265,-0.20303 -0.41609,-0.30454 -0.790238,-0.30454 -0.833993,0 -1.295838,0.47375 -1.668129,1.66004 -0.238831,0.77829 -0.238831,1.23009 -0.01195,1.52282 0.157265,0.19302 0.417948,0.29458 0.790238,0.29458 0.822084,0 1.297799,-0.46375 1.670135,-1.66008 z m 3.260417,-1.71585 c 0.32638,0.4081 0.396097,0.92565 0.203019,1.55863 -0.541412,1.74965 -2.583689,2.75286 -5.609326,2.75286 -1.80536,0 -3.033482,-0.3503 -3.576953,-1.02712 -0.326432,-0.406 -0.382187,-0.93555 -0.19107,-1.56852 0.54136,-1.74965 2.583637,-2.75286 5.609235,-2.75286 1.793496,0 3.035586,0.36028 3.565037,1.03701 m -11.284253,-0.86789 h 3.204709 c -0.193032,0.25883 -3.678461,4.9425 -3.736124,5.02216 h -4.91864 c -0.02387,-0.14732 -0.611027,-4.84098 -0.632975,-5.02216 h 3.013735 c 0.02179,0.14732 0.439849,3.5213 0.439849,3.5213 0,0 2.583638,-3.45359 2.629446,-3.5213 m -9.942664,2.58374 c 0.236878,-0.76638 0.248881,-1.21819 0.01192,-1.51282 -0.15922,-0.20303 -0.4179,-0.30454 -0.778284,-0.30454 -0.835951,0 -1.309699,0.47375 -1.670086,1.66004 -0.248779,0.77829 -0.248779,1.23009 -0.01195,1.52282 0.157266,0.19302 0.418047,0.29458 0.778284,0.29458 0.836098,0 1.309849,-0.46375 1.670135,-1.66008 z m 3.272416,-1.71585 c 0.328395,0.4081 0.396151,0.92565 0.193078,1.55863 -0.541361,1.74965 -2.585649,2.75286 -5.597325,2.75286 -1.805403,0 -3.035539,-0.3503 -3.578959,-1.02712 -0.326433,-0.406 -0.394091,-0.93555 -0.202971,-1.56852 0.553363,-1.74965 2.595591,-2.75286 5.609229,-2.75286 1.805351,0 3.035539,0.36028 3.576948,1.03701 m -9.433119,-0.24672 c 0.123412,0.15726 0.191119,0.31443 0.157266,0.54136 l -1.252036,3.86962 h -3.318174 l 1.174483,-3.61075 c 0.04375,-0.15726 -0.01195,-0.29262 -0.10156,-0.39414 -0.159274,-0.19308 -0.49761,-0.31648 -1.660042,-0.23692 0,0 -1.375399,4.18611 -1.399355,4.24181 h -3.316265 c 0.03194,-0.0896 1.55662,-4.74937 1.57852,-4.79517 1.152583,-0.20303 2.675252,-0.39415 4.255732,-0.39415 2.143691,5e-5 3.45148,0.25883 3.881431,0.77834 m -12.1083,1.06097 c 0.06771,-0.31649 -0.03382,-0.55336 -0.147367,-0.68873 -0.123364,-0.15923 -0.396102,-0.36229 -0.959359,-0.36229 -0.800185,0 -1.399359,0.38419 -1.602428,1.02711 l -0.39414,1.47897 z m 2.786707,-0.012 c 0,0.23688 -0.0557,0.43995 -0.101508,0.52951 -0.101512,0.0239 -5.889907,1.3098 -5.889907,1.3098 0,0 -0.05781,0.28268 0.157217,0.42991 0.28268,0.20306 0.587213,0.25881 1.104765,0.28072 1.275946,0.0558 3.003597,-0.68873 3.487442,-0.90175 -0.07765,0.24682 -0.575313,1.3317 -0.597213,1.3874 -0.215026,0.0796 -1.411307,0.4618 -3.758169,0.47375 -0.891799,0.0119 -2.482175,-0.10151 -3.137051,-0.9256 -0.326433,-0.406 -0.384095,-0.9813 -0.159224,-1.70384 0.531464,-1.72584 2.518039,-2.71905 5.428159,-2.71905 1.626285,0 2.687205,0.30454 3.17291,0.9017 0.191071,0.24878 0.292579,0.56527 0.292579,0.93745 m -11.29621,-4.11844 h 3.284418 c -0.06766,0.21301 -2.279106,7.34506 -2.314966,7.47049 h -3.282359 c 0.06761,-0.21498 2.279053,-7.34703 2.312907,-7.47049"
       id="path1-2"
       style="fill:#6d7793;fill-opacity:1;stroke-width:0.621904" /></g></svg>
